<?xml version="1.0" encoding="UTF-8"?>
<svg width="710px" height="874px" viewBox="0 0 710 874" version="1.1" xmlns="http://www.w3.org/2000/svg" xmlns:xlink="http://www.w3.org/1999/xlink">
    <!-- Generator: Sketch 52.5 (67469) - http://www.bohemiancoding.com/sketch -->
    <title>EUR</title>
    <desc>Created with Sketch.</desc>
    <g id="Page-1" stroke="none" stroke-width="1" fill="none" fill-rule="evenodd">
        <g id="EUR" fill="#000000">
            <path d="M625.417,713.735 C606.461,727.511 586.104,739.157 564.509,748.271 C568.968,746.389 573.427,744.508 577.886,742.626 C555.279,752.012 531.644,758.473 507.381,761.744 C512.343,761.077 517.306,760.41 522.268,759.743 C498.256,762.829 473.989,762.793 449.996,759.579 C454.959,760.245 459.921,760.912 464.884,761.579 C440.941,758.259 417.586,751.802 395.282,742.491 C399.741,744.373 404.2,746.254 408.66,748.136 C384.75,738.032 362.343,724.781 341.748,708.997 C345.526,711.915 349.304,714.834 353.081,717.753 C329.861,699.811 309.191,678.837 291.2,655.671 C294.119,659.449 297.038,663.227 299.957,667.005 C279.256,640.151 262.311,610.619 249.113,579.401 C250.995,583.86 252.877,588.319 254.759,592.778 C239.972,557.471 230.093,520.308 224.989,482.382 C225.656,487.344 226.322,492.307 226.989,497.269 C221.765,457.456 221.764,417.062 226.989,377.248 C226.322,382.21 225.655,387.172 224.989,392.135 C230.093,354.21 239.972,317.047 254.759,281.74 C252.877,286.199 250.995,290.658 249.113,295.117 C262.311,263.9 279.256,234.367 299.957,207.513 C297.038,211.291 294.119,215.069 291.2,218.847 C309.191,195.681 329.861,174.707 353.081,156.765 C349.303,159.683 345.525,162.602 341.748,165.521 C362.343,149.737 384.749,136.485 408.66,126.381 C404.2,128.262 399.741,130.144 395.282,132.026 C417.586,122.715 440.94,116.258 464.884,112.938 C459.921,113.605 454.959,114.271 449.996,114.938 C473.989,111.724 498.257,111.688 522.268,114.773 C517.306,114.106 512.343,113.439 507.381,112.773 C531.644,116.044 555.278,122.505 577.886,131.892 C573.427,130.01 568.968,128.128 564.509,126.246 C586.105,135.361 606.461,147.006 625.417,160.783 C637,169.2 655.297,170.079 668.568,166.428 C682.566,162.578 694.703,153.211 702.036,140.693 C709.612,127.76 711.657,111.996 707.682,97.542 C705.8,93.083 703.918,88.624 702.036,84.165 C697.057,75.75 690.361,69.053 681.946,64.075 C629.522,25.977 566.607,4.716 502.094,0.882 C475.15,-0.72 447.946,2.225 421.476,7.153 C396.455,11.811 373.165,20.67 349.839,30.648 C330.65,38.856 312.446,49.282 295.397,61.298 C274.451,76.06 254.531,92.472 236.743,110.938 C202.906,146.064 174.893,187.63 155.15,232.215 C143.826,257.787 133.967,283.778 126.965,310.87 C119.732,338.854 115.474,367.707 112.855,396.461 C107.952,450.291 112.93,505.575 125.571,558.062 C132.157,585.411 142.011,611.346 152.946,637.21 C161.806,658.168 172.508,678.339 184.815,697.474 C199.01,719.543 215.33,740.577 233.179,759.81 C250.715,778.707 270.552,795.016 291.296,810.268 C375.91,872.482 491.054,891.084 590.605,857.126 C623.062,846.055 654.191,830.614 681.947,810.443 C685.724,807.524 689.503,804.605 693.28,801.686 C700.22,794.699 705.021,786.462 707.682,776.975 C711.658,762.521 709.613,746.757 702.036,733.824 C694.703,721.306 682.566,711.939 668.568,708.089 C655.297,704.439 637,705.318 625.417,713.735 Z" id="Path"></path>
            <path d="M527.482,463.4 C496.89,463.4 466.297,463.4 435.706,463.4 C372.37,463.4 309.035,463.4 245.7,463.4 C192.283,463.4 138.867,463.4 85.45,463.4 C75.747,463.4 66.045,463.4 56.342,463.4 C25.815,463.4 0.342,488.874 0.342,519.4 C0.342,549.926 25.815,575.4 56.342,575.4 C86.934,575.4 117.527,575.4 148.119,575.4 C211.454,575.4 274.79,575.4 338.125,575.4 C391.542,575.4 444.958,575.4 498.375,575.4 C508.077,575.4 517.779,575.4 527.482,575.4 C558.008,575.4 583.482,549.926 583.482,519.4 C583.482,488.874 558.009,463.4 527.482,463.4 Z" id="Path"></path>
            <path d="M56.342,410.678 C86.934,410.678 117.527,410.678 148.119,410.678 C211.454,410.678 274.79,410.678 338.125,410.678 C391.542,410.678 444.958,410.678 498.375,410.678 C508.077,410.678 517.779,410.678 527.482,410.678 C558.008,410.678 583.482,385.205 583.482,354.678 C583.482,324.151 558.008,298.678 527.482,298.678 C496.89,298.678 466.297,298.678 435.706,298.678 C372.37,298.678 309.035,298.678 245.7,298.678 C192.283,298.678 138.867,298.678 85.45,298.678 C75.747,298.678 66.045,298.678 56.342,298.678 C25.815,298.678 0.342,324.151 0.342,354.678 C0.342,385.205 25.815,410.678 56.342,410.678 Z" id="Path"></path>
        </g>
    </g>
</svg>