<?xml version="1.0" encoding="UTF-8"?>
<svg width="698px" height="949px" viewBox="0 0 698 949" version="1.1" xmlns="http://www.w3.org/2000/svg" xmlns:xlink="http://www.w3.org/1999/xlink">
    <!-- Generator: Sketch 52.5 (67469) - http://www.bohemiancoding.com/sketch -->
    <title>GBP</title>
    <desc>Created with Sketch.</desc>
    <g id="Page-1" stroke="none" stroke-width="1" fill="none" fill-rule="evenodd">
        <g id="GBP" fill="#000000">
            <path d="M635.274,245.609 C633.023,221.932 629.241,198.227 621.899,175.558 C601.062,111.226 557.123,53.248 493.733,26.142 C472.756,17.172 452.115,9.863 429.536,6.182 C403.347,1.912 377.228,-0.159 350.72,1.036 C297.29,3.442 244.396,14.439 196.92,39.696 C132.297,74.074 86.556,138.814 72.993,210.423 C68.308,235.158 65.376,261.115 67.539,286.333 C70.327,318.828 80.614,349.775 93.052,379.735 C110.106,420.815 130.057,460.156 153.452,498.007 C165.501,517.501 177.691,536.605 186.697,557.761 C184.815,553.302 182.934,548.843 181.052,544.384 C188.016,560.89 193.12,578.118 195.564,595.887 C194.897,590.924 194.231,585.962 193.564,580.999 C195.675,596.863 195.619,612.889 193.537,628.754 C194.204,623.791 194.871,618.829 195.537,613.866 C192.808,633.965 186.931,653.44 179.064,672.104 C180.946,667.644 182.828,663.185 184.71,658.726 C170.695,691.637 150.917,721.781 129.12,750.018 C132.039,746.241 134.958,742.462 137.877,738.685 C106.918,778.605 71.639,815.017 34.936,849.65 C16.719,866.838 13.736,896.268 26.18,917.512 C41.903,944.352 76.035,952.295 102.799,937.602 C112.16,932.462 122.011,928.122 131.834,923.963 C127.375,925.844 122.916,927.726 118.457,929.608 C154.573,914.395 192.583,903.295 231.452,898.019 C226.49,898.686 221.527,899.353 216.565,900.02 C243.496,896.467 270.772,895.85 297.734,899.442 C292.772,898.775 287.809,898.108 282.847,897.442 C302.704,900.204 322.111,905.26 340.639,912.954 C336.18,911.072 331.721,909.19 327.262,907.309 C344.925,914.793 361.904,923.559 379.887,930.403 C393.793,935.694 408.18,939.681 422.782,942.515 C453.029,948.385 483.946,950.711 514.596,947.168 C541.513,944.057 567.644,939.082 593.045,929.527 C613.366,921.884 633.514,913.001 651.961,901.463 C662.171,895.076 671.937,887.691 681.08,879.9 C691.913,870.671 697.482,854.097 697.482,840.302 C697.482,825.509 691.535,811.158 681.08,800.704 C670.626,790.249 656.275,784.302 641.482,784.302 C625.701,784.302 613.552,790.764 601.884,800.704 C600.591,801.805 599.273,802.871 597.935,803.916 C601.712,800.997 605.491,798.078 609.268,795.159 C594.235,806.768 577.175,815.797 559.747,823.222 C564.206,821.34 568.665,819.458 573.125,817.576 C551.01,826.889 527.805,833.329 504.031,836.617 C508.994,835.951 513.956,835.284 518.919,834.617 C496.335,837.613 473.534,837.664 450.946,834.677 C455.908,835.344 460.87,836.011 465.833,836.678 C442.832,833.481 420.494,827.171 399.097,818.169 C403.557,820.051 408.016,821.933 412.475,823.815 C395.502,816.537 379.218,808.069 361.866,801.582 C350.143,797.199 338.008,793.968 325.73,791.581 C297.566,786.107 268.777,783.863 240.144,785.662 C194.153,788.553 280.837,723.101 294.469,682.313 C300.757,663.5 303.834,644.219 306.056,624.535 C307.572,611.108 307.507,597.527 305.961,584.108 C303.919,566.377 301.203,549.08 295.652,532.109 C290.176,515.367 283.035,499.016 275.015,483.34 C264.469,462.728 251.205,443.674 239.464,423.753 C223.359,396.428 208.762,368.162 196.4,338.943 C198.282,343.402 200.164,347.861 202.046,352.32 C191.672,327.648 181.526,301.465 177.916,274.761 C178.583,279.723 179.249,284.686 179.916,289.648 C177.677,272.465 178.77,254.474 181.053,237.366 C180.386,242.328 179.72,247.29 179.053,252.253 C181.716,232.734 186.73,213.574 194.385,195.408 C192.503,199.867 190.621,204.326 188.739,208.785 C195.157,193.726 203.364,179.516 213.373,166.555 C210.454,170.333 207.536,174.111 204.617,177.889 C214.163,165.654 225.201,154.722 237.475,145.229 C233.697,148.147 229.919,151.066 226.141,153.985 C240.187,143.24 255.605,134.535 271.871,127.626 C267.412,129.508 262.953,131.39 258.494,133.271 C281.965,123.44 306.781,117.442 331.957,114.028 C326.995,114.695 322.032,115.361 317.07,116.028 C347.018,112.091 377.563,111.229 407.559,115.138 C402.597,114.471 397.635,113.805 392.672,113.138 C412.55,115.82 432.08,120.692 450.585,128.492 C446.126,126.61 441.667,124.728 437.208,122.846 C451.176,128.819 464.363,136.398 476.42,145.648 C472.643,142.73 468.864,139.811 465.087,136.892 C476.729,145.918 487.135,156.375 496.169,168.008 C493.25,164.23 490.331,160.452 487.412,156.674 C497.74,170.096 506.129,184.865 512.743,200.443 C510.861,195.984 508.979,191.525 507.097,187.066 C515.643,207.375 521.201,228.857 524.148,250.676 C523.481,245.714 522.814,240.751 522.147,235.789 C523.615,246.808 524.742,258.136 524.302,269.274 C523.099,299.794 550.686,325.274 580.302,325.274 C595.095,325.274 609.446,319.327 619.9,308.872 C630.688,298.083 635.705,284.33 636.299,269.277 C636.61,261.404 636.019,253.437 635.274,245.609 Z" id="Path"></path>
            <path d="M56.733,562.435 C92.319,562.435 127.904,562.435 163.49,562.435 C227.276,562.435 291.062,562.435 354.848,562.435 C383.121,562.435 411.395,562.435 439.668,562.435 C470.194,562.435 495.668,536.961 495.668,506.435 C495.668,475.909 470.194,450.435 439.668,450.435 C404.082,450.435 368.496,450.435 332.911,450.435 C269.125,450.435 205.339,450.435 141.553,450.435 C113.28,450.435 85.006,450.435 56.733,450.435 C26.206,450.435 0.733,475.909 0.733,506.435 C0.733,536.961 26.207,562.435 56.733,562.435 Z" id="Path"></path>
        </g>
    </g>
</svg>