<?xml version="1.0" encoding="UTF-8"?>
<svg width="517px" height="902px" viewBox="0 0 517 902" version="1.1" xmlns="http://www.w3.org/2000/svg" xmlns:xlink="http://www.w3.org/1999/xlink">
    <!-- Generator: Sketch 52.5 (67469) - http://www.bohemiancoding.com/sketch -->
    <title>USD</title>
    <desc>Created with Sketch.</desc>
    <g id="Page-1" stroke="none" stroke-width="1" fill="none" fill-rule="evenodd">
        <g id="USD" fill="#000000">
            <path d="M104.509,788.304 C152.893,788.304 201.278,788.304 249.662,788.304 C272.078,788.304 294.494,788.304 316.91,788.304 C334.481,788.304 352.223,786.306 369.297,782.132 C399.689,774.703 426.273,758.902 450.061,739.085 C461.916,729.21 471.054,717.259 480.405,705.055 C487.082,696.339 492.599,686.769 497.068,676.751 C503.479,662.382 509.241,648.118 512.213,632.652 C515.152,617.357 517.056,601.51 516.523,585.894 C515.435,554.089 506.913,523.632 491.815,495.669 C477.066,468.35 455.293,446.893 430.471,428.818 C417.874,419.645 403.92,413.676 389.587,407.721 C379.199,403.406 368.417,400.337 357.316,398.525 C341.38,395.923 325.934,394.791 309.932,394.791 C280.248,394.791 250.564,394.791 220.88,394.791 C206.515,394.791 191.992,395.358 177.722,393.46 C182.684,394.127 187.647,394.793 192.609,395.46 C180.531,393.733 168.797,390.526 157.523,385.861 C161.982,387.743 166.441,389.625 170.9,391.507 C159.51,386.668 148.851,380.444 139.031,372.913 C142.809,375.832 146.587,378.751 150.365,381.669 C140.68,374.099 132.032,365.406 124.517,355.678 C127.436,359.456 130.354,363.234 133.273,367.012 C126.071,357.509 120.088,347.232 115.397,336.269 C117.279,340.728 119.161,345.187 121.042,349.646 C116.354,338.394 113.129,326.676 111.392,314.611 C112.059,319.573 112.725,324.535 113.392,329.498 C111.658,316.552 111.658,303.516 113.392,290.569 C112.725,295.531 112.058,300.494 111.392,305.456 C113.129,293.39 116.353,281.673 121.042,270.421 C119.161,274.88 117.279,279.339 115.397,283.798 C120.088,272.835 126.071,262.558 133.273,253.055 C130.354,256.833 127.436,260.611 124.517,264.389 C132.032,254.661 140.68,245.968 150.365,238.398 C146.587,241.317 142.809,244.236 139.031,247.154 C148.851,239.624 159.51,233.4 170.9,228.561 C166.441,230.443 161.982,232.325 157.523,234.207 C168.797,229.542 180.531,226.335 192.609,224.608 C187.647,225.275 182.685,225.941 177.722,226.608 C196.451,224.116 215.933,225.276 234.776,225.276 C266.166,225.276 297.556,225.276 328.945,225.276 C356.688,225.276 384.43,225.276 412.174,225.276 C442.7,225.276 468.174,199.803 468.174,169.276 C468.174,138.749 442.7,113.276 412.174,113.276 C363.768,113.276 315.362,113.276 266.956,113.276 C244.731,113.276 222.506,113.276 200.281,113.276 C182.344,113.276 164.186,115.363 146.797,119.781 C116.427,127.496 89.804,143.332 66.069,163.341 C54.275,173.284 45.054,185.324 35.77,197.573 C29.12,206.348 23.635,215.974 19.211,226.046 C12.86,240.506 7.118,254.717 4.253,270.27 C1.423,285.63 -0.47,301.435 0.227,317.084 C1.64,348.829 10.222,379.303 25.695,407.065 C40.818,434.2 62.694,455.713 87.793,473.523 C122.987,498.497 165.793,506.789 208.114,506.789 C237.868,506.789 267.622,506.789 297.377,506.789 C311.476,506.789 325.71,506.254 339.717,508.12 C334.755,507.453 329.792,506.787 324.83,506.12 C336.876,507.846 348.576,511.05 359.814,515.719 C355.354,513.837 350.895,511.955 346.436,510.073 C357.774,514.911 368.375,521.136 378.133,528.667 C374.355,525.748 370.576,522.829 366.799,519.91 C376.078,527.212 384.389,535.555 391.656,544.861 C388.737,541.083 385.818,537.305 382.899,533.527 C390.401,543.319 396.595,553.951 401.407,565.309 C399.525,560.85 397.643,556.391 395.761,551.932 C400.406,563.192 403.592,574.91 405.308,586.967 C404.641,582.005 403.975,577.042 403.308,572.08 C405.022,585.026 405.022,598.061 403.308,611.008 C403.975,606.046 404.641,601.083 405.308,596.121 C403.592,608.179 400.406,619.896 395.761,631.156 C397.643,626.697 399.525,622.238 401.407,617.779 C396.595,629.137 390.401,639.769 382.899,649.561 C385.818,645.783 388.737,642.005 391.656,638.227 C384.388,647.534 376.078,655.876 366.799,663.178 C370.576,660.259 374.355,657.34 378.133,654.421 C368.375,661.952 357.774,668.177 346.436,673.015 C350.895,671.133 355.354,669.251 359.814,667.369 C348.576,672.038 336.876,675.242 324.83,676.968 C329.792,676.301 334.755,675.635 339.717,674.968 C321.019,677.46 301.565,676.299 282.751,676.299 C251.367,676.299 219.983,676.299 188.6,676.299 C160.57,676.299 132.541,676.299 104.511,676.299 C73.984,676.299 48.511,701.773 48.511,732.299 C48.511,762.825 73.982,788.304 104.509,788.304 Z" id="Path"></path>
            <path d="M314.341,845.544 C314.341,825.585 314.341,805.626 314.341,785.667 C314.341,735.912 314.341,686.157 314.341,636.402 C314.341,572.034 314.341,507.665 314.341,443.297 C314.341,379.498 314.341,315.699 314.341,251.9 C314.341,203.853 314.341,155.806 314.341,107.759 C314.341,90.519 314.341,73.28 314.341,56.04 C314.341,25.513 288.867,0.04 258.341,0.04 C227.814,0.04 202.341,25.513 202.341,56.04 C202.341,75.999 202.341,95.958 202.341,115.917 C202.341,165.672 202.341,215.427 202.341,265.182 C202.341,329.551 202.341,393.919 202.341,458.287 C202.341,522.086 202.341,585.885 202.341,649.683 C202.341,697.73 202.341,745.777 202.341,793.824 C202.341,811.064 202.341,828.304 202.341,845.544 C202.341,876.07 227.814,901.544 258.341,901.544 C288.867,901.544 314.341,876.07 314.341,845.544 Z" id="Path"></path>
        </g>
    </g>
</svg>